<svg id="Layer_1" data-name="Layer 1" xmlns="http://www.w3.org/2000/svg" viewBox="0 0 188 207"><defs><style>.cls-1{fill:#b90cd6;}.cls-2{fill:#0075ff;}</style></defs><path class="cls-1" d="M81.79,192.47a60.14,60.14,0,0,1-19.74-2.94,46.84,46.84,0,0,1-15.28-8.81l-1.88,9.4H12V31.7H49.83V83.88a51.1,51.1,0,0,1,14.34-5.64,71.72,71.72,0,0,1,16.45-1.88q24.43,0,38.55,13.51t14.1,43.6q0,30.09-13.87,44.54T81.79,192.47ZM71,165q12.69,0,18.22-7.64t5.52-23.62q0-16.46-5.76-23t-18-6.58q-13.4,0-21.15,7.06v45.36Q58.29,165,71,165Z"/><circle class="cls-2" cx="163" cy="176" r="15"/></svg>